<svg width="62" height="58" viewBox="0 0 62 58" fill="none" xmlns="http://www.w3.org/2000/svg">
<path d="M50 0C51.1044 0.00019995 52 0.895554 52 2C52 3.10445 51.1044 3.9998 50 4C49.4599 3.9999 48.9702 3.78457 48.6104 3.43652L21.4336 12H54C58.4183 12 62 15.5817 62 20V50C62 54.4183 58.4183 58 54 58H8C3.58172 58 8.05346e-08 54.4183 0 50V20C4.50994e-07 15.5817 3.58172 12 8 12H12.7148C12.8139 11.2899 13.3265 10.6641 14.0811 10.4727L48.0049 1.87793C48.068 0.830372 48.9366 0.000192546 50 0ZM17 51C16.4477 51 16 51.4477 16 52C16 52.5523 16.4477 53 17 53H27C27.5523 53 28 52.5523 28 52C28 51.4477 27.5523 51 27 51H17ZM50 44C47.7909 44 46 45.7909 46 48C46 50.2091 47.7909 52 50 52C52.2091 52 54 50.2091 54 48C54 45.7909 52.2091 44 50 44ZM12 47C11.4477 47 11 47.4477 11 48C11 48.5523 11.4477 49 12 49H32C32.5523 49 33 48.5523 33 48C33 47.4477 32.5523 47 32 47H12ZM10 43C9.44772 43 9 43.4477 9 44C9 44.5523 9.44772 45 10 45H34C34.5523 45 35 44.5523 35 44C35 43.4477 34.5523 43 34 43H10ZM9 39C8.44772 39 8 39.4477 8 40C8 40.5523 8.44772 41 9 41H35C35.5523 41 36 40.5523 36 40C36 39.4477 35.5523 39 35 39H9ZM50 28C46.6863 28 44 30.6863 44 34C44 37.3137 46.6863 40 50 40C53.3137 40 56 37.3137 56 34C56 30.6863 53.3137 28 50 28ZM10 35C9.44772 35 9 35.4477 9 36C9 36.5523 9.44772 37 10 37H34C34.5523 37 35 36.5523 35 36C35 35.4477 34.5523 35 34 35H10ZM12 31C11.4477 31 11 31.4477 11 32C11 32.5523 11.4477 33 12 33H32C32.5523 33 33 32.5523 33 32C33 31.4477 32.5523 31 32 31H12ZM17 27C16.4477 27 16 27.4477 16 28C16 28.5523 16.4477 29 17 29H27C27.5523 29 28 28.5523 28 28C28 27.4477 27.5523 27 27 27H17ZM11 18C9.34315 18 8 19.3431 8 21C8 22.6569 9.34315 24 11 24H53C54.6569 24 56 22.6569 56 21C56 19.3431 54.6569 18 53 18H11Z" fill="white"/>
</svg>
